<svg width="115" height="100" viewBox="0 0 115 100" fill="none" xmlns="http://www.w3.org/2000/svg">
<path d="M56.6712 6.27112C51.2814 10.9599 50.4306 19.7963 55.3784 25.4858C60.3262 31.1727 69.1957 31.5563 74.5854 26.8675C81.9919 20.4237 84.6766 0 84.6766 0C84.6766 0 63.6332 0.215895 56.6712 6.27112Z" fill="#399FC9"/>
<path d="M94.7373 27.9139C87.9226 25.7652 79.9421 29.6538 77.6739 36.8418C75.4058 44.0299 79.711 51.7945 86.5231 53.9458C95.8853 56.8998 114.706 48.5256 114.706 48.5256C114.706 48.5256 103.536 30.6901 94.7373 27.9139Z" fill="#5CC7D7"/>
<path d="M93.5919 71.6137C91.9257 64.6669 84.4811 59.8284 77.1508 61.5885C69.8206 63.3487 65.3833 71.0371 67.0495 77.9839C69.3405 87.529 86.2108 99.3473 86.2108 99.3473C86.2108 99.3473 95.7432 80.5848 93.5919 71.6137Z" fill="#005995"/>
<path d="M56.1759 95.2377C61.8197 90.8563 63.1608 82.0808 58.5381 76.1246C53.9154 70.171 45.0815 69.2947 39.4377 73.6761C31.6833 79.6958 27.8657 99.9391 27.8657 99.9391C27.8657 99.9391 48.8888 100.894 56.1759 95.2377Z" fill="#399FC9"/>
<path d="M18.6533 73.8996C25.3207 76.4675 33.5272 73.0817 36.2374 66.0486C38.9475 59.013 35.1325 50.9969 28.4651 48.4291C19.3036 44.9011 0 52.0891 0 52.0891C0 52.0891 10.0429 70.5824 18.6508 73.8996H18.6533Z" fill="#5CC7D7"/>
<path d="M19.6033 31.3023C20.8555 38.3379 28.0003 43.6058 35.422 42.285C42.8437 40.9642 47.7306 33.5501 46.4759 26.517C44.7538 16.8525 28.6124 4.05377 28.6124 4.05377C28.6124 4.05377 17.9853 22.2169 19.6007 31.3023H19.6033Z" fill="#005995"/>
</svg>
